<mxfile host="app.diagrams.net" agent="Mozilla/5.0 (Windows NT 10.0; Win64; x64) AppleWebKit/537.36 (KHTML, like Gecko) Chrome/139.0.0.0 Safari/537.36" version="28.1.1">
  <diagram name="Page-1" id="MG0lEa-HUgkiu0qIdUfv">
    <mxGraphModel dx="749" dy="397" grid="1" gridSize="10" guides="1" tooltips="1" connect="1" arrows="1" fold="1" page="1" pageScale="1" pageWidth="850" pageHeight="1100" math="0" shadow="0">
      <root>
        <mxCell id="0" />
        <mxCell id="1" parent="0" />
        <mxCell id="g9feEOPvG_fvenJrY9SU-1" value="1.0 Detecting Software Vulnerabilities Project" style="whiteSpace=wrap;rounded=1;shadow=1;fillColor=#10739E;strokeColor=none;fontColor=#FFFFFF;fontStyle=1;fontSize=24" parent="1" vertex="1">
          <mxGeometry x="660" y="560" width="560" height="60" as="geometry" />
        </mxCell>
        <mxCell id="g9feEOPvG_fvenJrY9SU-2" value="1.1 Planning" style="whiteSpace=wrap;rounded=1;fillColor=#F2931E;strokeColor=none;shadow=1;fontColor=#FFFFFF;fontStyle=1;fontSize=14" parent="1" vertex="1">
          <mxGeometry x="200" y="679.9999999999998" width="140" height="60" as="geometry" />
        </mxCell>
        <mxCell id="g9feEOPvG_fvenJrY9SU-180" style="edgeStyle=orthogonalEdgeStyle;rounded=0;orthogonalLoop=1;jettySize=auto;html=1;exitX=0.25;exitY=1;exitDx=0;exitDy=0;entryX=0;entryY=0.5;entryDx=0;entryDy=0;" parent="1" source="g9feEOPvG_fvenJrY9SU-17" target="g9feEOPvG_fvenJrY9SU-106" edge="1">
          <mxGeometry relative="1" as="geometry" />
        </mxCell>
        <mxCell id="g9feEOPvG_fvenJrY9SU-181" style="edgeStyle=orthogonalEdgeStyle;rounded=0;orthogonalLoop=1;jettySize=auto;html=1;exitX=0.25;exitY=1;exitDx=0;exitDy=0;entryX=0;entryY=0.5;entryDx=0;entryDy=0;" parent="1" source="g9feEOPvG_fvenJrY9SU-17" target="g9feEOPvG_fvenJrY9SU-107" edge="1">
          <mxGeometry relative="1" as="geometry" />
        </mxCell>
        <mxCell id="g9feEOPvG_fvenJrY9SU-182" style="edgeStyle=orthogonalEdgeStyle;rounded=0;orthogonalLoop=1;jettySize=auto;html=1;exitX=0.25;exitY=1;exitDx=0;exitDy=0;entryX=0;entryY=0.5;entryDx=0;entryDy=0;" parent="1" source="g9feEOPvG_fvenJrY9SU-17" target="g9feEOPvG_fvenJrY9SU-108" edge="1">
          <mxGeometry relative="1" as="geometry" />
        </mxCell>
        <mxCell id="g9feEOPvG_fvenJrY9SU-17" value="1.1.3 System Design" style="whiteSpace=wrap;rounded=1;fillColor=#12AAB5;strokeColor=none;shadow=1;fontColor=light-dark(#000000,#000000);" parent="1" vertex="1">
          <mxGeometry x="350" y="810.0000000000001" width="120" height="60" as="geometry" />
        </mxCell>
        <mxCell id="g9feEOPvG_fvenJrY9SU-32" value="" style="edgeStyle=elbowEdgeStyle;elbow=vertical;rounded=0;fontColor=#000000;endArrow=none;endFill=0;strokeWidth=8;strokeColor=#23445D;" parent="1" source="g9feEOPvG_fvenJrY9SU-1" target="g9feEOPvG_fvenJrY9SU-2" edge="1">
          <mxGeometry width="100" height="100" relative="1" as="geometry">
            <mxPoint x="570" y="660" as="sourcePoint" />
            <mxPoint x="670" y="560" as="targetPoint" />
          </mxGeometry>
        </mxCell>
        <mxCell id="g9feEOPvG_fvenJrY9SU-33" value="" style="edgeStyle=elbowEdgeStyle;elbow=vertical;rounded=0;fontColor=#000000;endArrow=none;endFill=0;strokeWidth=8;strokeColor=#23445D;entryX=0.5;entryY=0;entryDx=0;entryDy=0;exitX=0.5;exitY=1;exitDx=0;exitDy=0;" parent="1" source="g9feEOPvG_fvenJrY9SU-1" target="g9feEOPvG_fvenJrY9SU-78" edge="1">
          <mxGeometry width="100" height="100" relative="1" as="geometry">
            <mxPoint x="1300" y="630" as="sourcePoint" />
            <mxPoint x="660" y="689.9999999999998" as="targetPoint" />
          </mxGeometry>
        </mxCell>
        <mxCell id="g9feEOPvG_fvenJrY9SU-34" value="" style="edgeStyle=elbowEdgeStyle;elbow=vertical;rounded=0;fontColor=#000000;endArrow=none;endFill=0;strokeWidth=8;strokeColor=#23445D;exitX=0.5;exitY=1;exitDx=0;exitDy=0;entryX=0.5;entryY=0;entryDx=0;entryDy=0;" parent="1" source="g9feEOPvG_fvenJrY9SU-1" target="g9feEOPvG_fvenJrY9SU-85" edge="1">
          <mxGeometry width="100" height="100" relative="1" as="geometry">
            <mxPoint x="590" y="680" as="sourcePoint" />
            <mxPoint x="1200" y="690" as="targetPoint" />
            <Array as="points">
              <mxPoint x="1060" y="650" />
            </Array>
          </mxGeometry>
        </mxCell>
        <mxCell id="g9feEOPvG_fvenJrY9SU-35" value="" style="edgeStyle=elbowEdgeStyle;elbow=vertical;rounded=0;fontColor=#000000;endArrow=none;endFill=0;strokeWidth=8;strokeColor=#23445D;entryX=0.5;entryY=0;entryDx=0;entryDy=0;" parent="1" source="g9feEOPvG_fvenJrY9SU-1" target="g9feEOPvG_fvenJrY9SU-92" edge="1">
          <mxGeometry width="100" height="100" relative="1" as="geometry">
            <mxPoint x="600" y="690" as="sourcePoint" />
            <mxPoint x="1370" y="689.9999999999998" as="targetPoint" />
          </mxGeometry>
        </mxCell>
        <mxCell id="g9feEOPvG_fvenJrY9SU-175" style="edgeStyle=orthogonalEdgeStyle;rounded=0;orthogonalLoop=1;jettySize=auto;html=1;exitX=0.167;exitY=0.998;exitDx=0;exitDy=0;entryX=0;entryY=0.5;entryDx=0;entryDy=0;exitPerimeter=0;" parent="1" source="g9feEOPvG_fvenJrY9SU-39" target="g9feEOPvG_fvenJrY9SU-105" edge="1">
          <mxGeometry relative="1" as="geometry">
            <mxPoint x="240.23529411764707" y="1090" as="targetPoint" />
            <Array as="points">
              <mxPoint x="230" y="1080" />
            </Array>
          </mxGeometry>
        </mxCell>
        <mxCell id="g9feEOPvG_fvenJrY9SU-178" style="edgeStyle=orthogonalEdgeStyle;rounded=0;orthogonalLoop=1;jettySize=auto;html=1;exitX=0.25;exitY=1;exitDx=0;exitDy=0;entryX=0;entryY=0.5;entryDx=0;entryDy=0;" parent="1" source="g9feEOPvG_fvenJrY9SU-39" target="g9feEOPvG_fvenJrY9SU-103" edge="1">
          <mxGeometry relative="1" as="geometry" />
        </mxCell>
        <mxCell id="g9feEOPvG_fvenJrY9SU-179" style="edgeStyle=orthogonalEdgeStyle;rounded=0;orthogonalLoop=1;jettySize=auto;html=1;exitX=0.25;exitY=1;exitDx=0;exitDy=0;entryX=0;entryY=0.5;entryDx=0;entryDy=0;" parent="1" source="g9feEOPvG_fvenJrY9SU-39" target="g9feEOPvG_fvenJrY9SU-104" edge="1">
          <mxGeometry relative="1" as="geometry" />
        </mxCell>
        <mxCell id="g9feEOPvG_fvenJrY9SU-39" value="1.1.2 Dataset Preparation" style="whiteSpace=wrap;rounded=1;fillColor=#12AAB5;strokeColor=none;shadow=1;fontColor=light-dark(#000000,#000000);" parent="1" vertex="1">
          <mxGeometry x="199.99999999999997" y="810" width="120" height="60" as="geometry" />
        </mxCell>
        <mxCell id="g9feEOPvG_fvenJrY9SU-136" style="edgeStyle=orthogonalEdgeStyle;rounded=0;orthogonalLoop=1;jettySize=auto;html=1;exitX=0;exitY=0.5;exitDx=0;exitDy=0;entryX=0;entryY=0.5;entryDx=0;entryDy=0;" parent="1" source="g9feEOPvG_fvenJrY9SU-41" target="g9feEOPvG_fvenJrY9SU-101" edge="1">
          <mxGeometry relative="1" as="geometry">
            <mxPoint x="40" y="1000" as="targetPoint" />
            <Array as="points">
              <mxPoint x="60" y="1000" />
            </Array>
          </mxGeometry>
        </mxCell>
        <mxCell id="g9feEOPvG_fvenJrY9SU-137" style="edgeStyle=orthogonalEdgeStyle;rounded=0;orthogonalLoop=1;jettySize=auto;html=1;exitX=0;exitY=0.5;exitDx=0;exitDy=0;entryX=0;entryY=0.5;entryDx=0;entryDy=0;" parent="1" source="g9feEOPvG_fvenJrY9SU-41" target="g9feEOPvG_fvenJrY9SU-100" edge="1">
          <mxGeometry relative="1" as="geometry">
            <mxPoint x="40" y="930" as="targetPoint" />
            <Array as="points">
              <mxPoint x="60" y="920" />
            </Array>
          </mxGeometry>
        </mxCell>
        <mxCell id="g9feEOPvG_fvenJrY9SU-138" style="edgeStyle=orthogonalEdgeStyle;rounded=0;orthogonalLoop=1;jettySize=auto;html=1;exitX=0;exitY=0.5;exitDx=0;exitDy=0;entryX=0;entryY=0.5;entryDx=0;entryDy=0;" parent="1" source="g9feEOPvG_fvenJrY9SU-41" target="g9feEOPvG_fvenJrY9SU-102" edge="1">
          <mxGeometry relative="1" as="geometry">
            <mxPoint x="40" y="1090" as="targetPoint" />
            <Array as="points">
              <mxPoint x="60" y="1080" />
            </Array>
          </mxGeometry>
        </mxCell>
        <mxCell id="g9feEOPvG_fvenJrY9SU-41" value="1.1.1 Requirements" style="whiteSpace=wrap;rounded=1;fillColor=#12AAB5;strokeColor=light-dark(transparent,#000000);shadow=1;fontColor=light-dark(#000000,#000000);" parent="1" vertex="1">
          <mxGeometry x="60" y="810" width="120" height="60" as="geometry" />
        </mxCell>
        <mxCell id="g9feEOPvG_fvenJrY9SU-60" value="" style="edgeStyle=elbowEdgeStyle;elbow=vertical;rounded=0;fontColor=#000000;endArrow=none;endFill=0;strokeWidth=8;strokeColor=#23445D;entryX=0.5;entryY=0;entryDx=0;entryDy=0;exitX=0.5;exitY=1;exitDx=0;exitDy=0;" parent="1" source="g9feEOPvG_fvenJrY9SU-2" target="g9feEOPvG_fvenJrY9SU-41" edge="1">
          <mxGeometry width="100" height="100" relative="1" as="geometry">
            <mxPoint x="260" y="749.9999999999998" as="sourcePoint" />
            <mxPoint x="110" y="810" as="targetPoint" />
            <Array as="points" />
          </mxGeometry>
        </mxCell>
        <mxCell id="g9feEOPvG_fvenJrY9SU-75" value="" style="edgeStyle=elbowEdgeStyle;elbow=vertical;rounded=0;fontColor=#000000;endArrow=none;endFill=0;strokeWidth=8;strokeColor=#23445D;entryX=0.5;entryY=0;entryDx=0;entryDy=0;" parent="1" target="g9feEOPvG_fvenJrY9SU-39" edge="1">
          <mxGeometry width="100" height="100" relative="1" as="geometry">
            <mxPoint x="270" y="760" as="sourcePoint" />
            <mxPoint x="259.29" y="821" as="targetPoint" />
          </mxGeometry>
        </mxCell>
        <mxCell id="g9feEOPvG_fvenJrY9SU-76" value="" style="edgeStyle=elbowEdgeStyle;elbow=vertical;rounded=0;fontColor=#000000;endArrow=none;endFill=0;strokeWidth=8;strokeColor=#23445D;entryX=0.5;entryY=0;entryDx=0;entryDy=0;exitX=0.5;exitY=1;exitDx=0;exitDy=0;" parent="1" source="g9feEOPvG_fvenJrY9SU-2" target="g9feEOPvG_fvenJrY9SU-17" edge="1">
          <mxGeometry width="100" height="100" relative="1" as="geometry">
            <mxPoint x="270" y="760" as="sourcePoint" />
            <mxPoint x="320" y="840" as="targetPoint" />
            <Array as="points" />
          </mxGeometry>
        </mxCell>
        <mxCell id="g9feEOPvG_fvenJrY9SU-78" value="1.2 Implementation" style="whiteSpace=wrap;rounded=1;fillColor=#F2931E;strokeColor=none;shadow=1;fontColor=#FFFFFF;fontStyle=1;fontSize=14" parent="1" vertex="1">
          <mxGeometry x="640" y="680" width="140" height="60" as="geometry" />
        </mxCell>
        <mxCell id="g9feEOPvG_fvenJrY9SU-192" style="edgeStyle=orthogonalEdgeStyle;rounded=0;orthogonalLoop=1;jettySize=auto;html=1;exitX=0.25;exitY=1;exitDx=0;exitDy=0;entryX=0;entryY=0.5;entryDx=0;entryDy=0;" parent="1" source="g9feEOPvG_fvenJrY9SU-79" target="g9feEOPvG_fvenJrY9SU-115" edge="1">
          <mxGeometry relative="1" as="geometry" />
        </mxCell>
        <mxCell id="g9feEOPvG_fvenJrY9SU-194" style="edgeStyle=orthogonalEdgeStyle;rounded=0;orthogonalLoop=1;jettySize=auto;html=1;exitX=0.25;exitY=1;exitDx=0;exitDy=0;entryX=0;entryY=0.5;entryDx=0;entryDy=0;" parent="1" source="g9feEOPvG_fvenJrY9SU-79" target="g9feEOPvG_fvenJrY9SU-116" edge="1">
          <mxGeometry relative="1" as="geometry" />
        </mxCell>
        <mxCell id="g9feEOPvG_fvenJrY9SU-195" style="edgeStyle=orthogonalEdgeStyle;rounded=0;orthogonalLoop=1;jettySize=auto;html=1;exitX=0.25;exitY=1;exitDx=0;exitDy=0;entryX=0;entryY=0.5;entryDx=0;entryDy=0;" parent="1" source="g9feEOPvG_fvenJrY9SU-79" target="g9feEOPvG_fvenJrY9SU-117" edge="1">
          <mxGeometry relative="1" as="geometry" />
        </mxCell>
        <mxCell id="g9feEOPvG_fvenJrY9SU-79" value="1.2.3 Visualization " style="whiteSpace=wrap;rounded=1;fillColor=#12AAB5;strokeColor=none;shadow=1;fontColor=light-dark(#000000,#000000);" parent="1" vertex="1">
          <mxGeometry x="800" y="810.0000000000005" width="120" height="60" as="geometry" />
        </mxCell>
        <mxCell id="g9feEOPvG_fvenJrY9SU-189" style="edgeStyle=orthogonalEdgeStyle;rounded=0;orthogonalLoop=1;jettySize=auto;html=1;exitX=0.25;exitY=1;exitDx=0;exitDy=0;entryX=0;entryY=0.5;entryDx=0;entryDy=0;" parent="1" source="g9feEOPvG_fvenJrY9SU-80" target="g9feEOPvG_fvenJrY9SU-112" edge="1">
          <mxGeometry relative="1" as="geometry" />
        </mxCell>
        <mxCell id="g9feEOPvG_fvenJrY9SU-190" style="edgeStyle=orthogonalEdgeStyle;rounded=0;orthogonalLoop=1;jettySize=auto;html=1;exitX=0.25;exitY=1;exitDx=0;exitDy=0;entryX=0;entryY=0.5;entryDx=0;entryDy=0;" parent="1" source="g9feEOPvG_fvenJrY9SU-80" target="g9feEOPvG_fvenJrY9SU-113" edge="1">
          <mxGeometry relative="1" as="geometry" />
        </mxCell>
        <mxCell id="g9feEOPvG_fvenJrY9SU-191" style="edgeStyle=orthogonalEdgeStyle;rounded=0;orthogonalLoop=1;jettySize=auto;html=1;exitX=0.25;exitY=1;exitDx=0;exitDy=0;entryX=0;entryY=0.5;entryDx=0;entryDy=0;" parent="1" source="g9feEOPvG_fvenJrY9SU-80" target="g9feEOPvG_fvenJrY9SU-114" edge="1">
          <mxGeometry relative="1" as="geometry" />
        </mxCell>
        <mxCell id="g9feEOPvG_fvenJrY9SU-80" value="1.2.2 Web Application Development" style="whiteSpace=wrap;rounded=1;fillColor=#12AAB5;strokeColor=none;shadow=1;fontColor=light-dark(#000000,#000000);" parent="1" vertex="1">
          <mxGeometry x="650" y="810.0000000000002" width="120" height="60" as="geometry" />
        </mxCell>
        <mxCell id="g9feEOPvG_fvenJrY9SU-186" style="edgeStyle=orthogonalEdgeStyle;rounded=0;orthogonalLoop=1;jettySize=auto;html=1;exitX=0.25;exitY=1;exitDx=0;exitDy=0;entryX=0;entryY=0.5;entryDx=0;entryDy=0;" parent="1" source="g9feEOPvG_fvenJrY9SU-81" target="g9feEOPvG_fvenJrY9SU-109" edge="1">
          <mxGeometry relative="1" as="geometry">
            <Array as="points">
              <mxPoint x="530" y="870" />
              <mxPoint x="530" y="920" />
            </Array>
          </mxGeometry>
        </mxCell>
        <mxCell id="g9feEOPvG_fvenJrY9SU-187" style="edgeStyle=orthogonalEdgeStyle;rounded=0;orthogonalLoop=1;jettySize=auto;html=1;exitX=0.25;exitY=1;exitDx=0;exitDy=0;entryX=0;entryY=0.5;entryDx=0;entryDy=0;" parent="1" source="g9feEOPvG_fvenJrY9SU-81" target="g9feEOPvG_fvenJrY9SU-110" edge="1">
          <mxGeometry relative="1" as="geometry">
            <Array as="points">
              <mxPoint x="530" y="870" />
              <mxPoint x="530" y="1000" />
            </Array>
          </mxGeometry>
        </mxCell>
        <mxCell id="g9feEOPvG_fvenJrY9SU-81" value="1.2.1 ML Model Development" style="whiteSpace=wrap;rounded=1;fillColor=#12AAB5;strokeColor=light-dark(transparent,#000000);shadow=1;fontColor=light-dark(#000000,#000000);" parent="1" vertex="1">
          <mxGeometry x="500" y="810.0000000000002" width="120" height="60" as="geometry" />
        </mxCell>
        <mxCell id="g9feEOPvG_fvenJrY9SU-82" value="" style="edgeStyle=elbowEdgeStyle;elbow=vertical;rounded=0;fontColor=#000000;endArrow=none;endFill=0;strokeWidth=8;strokeColor=#23445D;entryX=0.5;entryY=0;entryDx=0;entryDy=0;exitX=0.5;exitY=1;exitDx=0;exitDy=0;" parent="1" source="g9feEOPvG_fvenJrY9SU-78" target="g9feEOPvG_fvenJrY9SU-81" edge="1">
          <mxGeometry width="100" height="100" relative="1" as="geometry">
            <mxPoint x="710" y="750" as="sourcePoint" />
            <mxPoint x="560" y="810.0000000000002" as="targetPoint" />
            <Array as="points" />
          </mxGeometry>
        </mxCell>
        <mxCell id="g9feEOPvG_fvenJrY9SU-83" value="" style="edgeStyle=elbowEdgeStyle;elbow=vertical;rounded=0;fontColor=#000000;endArrow=none;endFill=0;strokeWidth=8;strokeColor=#23445D;entryX=0.5;entryY=0;entryDx=0;entryDy=0;" parent="1" target="g9feEOPvG_fvenJrY9SU-80" edge="1">
          <mxGeometry width="100" height="100" relative="1" as="geometry">
            <mxPoint x="710" y="780" as="sourcePoint" />
            <mxPoint x="709.29" y="821.0000000000002" as="targetPoint" />
            <Array as="points">
              <mxPoint x="710" y="770" />
            </Array>
          </mxGeometry>
        </mxCell>
        <mxCell id="g9feEOPvG_fvenJrY9SU-84" value="" style="edgeStyle=elbowEdgeStyle;elbow=vertical;rounded=0;fontColor=#000000;endArrow=none;endFill=0;strokeWidth=8;strokeColor=#23445D;entryX=0.5;entryY=0;entryDx=0;entryDy=0;exitX=0.5;exitY=1;exitDx=0;exitDy=0;" parent="1" source="g9feEOPvG_fvenJrY9SU-78" target="g9feEOPvG_fvenJrY9SU-79" edge="1">
          <mxGeometry width="100" height="100" relative="1" as="geometry">
            <mxPoint x="720" y="760.0000000000002" as="sourcePoint" />
            <mxPoint x="770" y="840.0000000000002" as="targetPoint" />
            <Array as="points" />
          </mxGeometry>
        </mxCell>
        <mxCell id="g9feEOPvG_fvenJrY9SU-85" value="1.3 Monitoring &amp; Control" style="whiteSpace=wrap;rounded=1;fillColor=#F2931E;strokeColor=none;shadow=1;fontColor=#FFFFFF;fontStyle=1;fontSize=14" parent="1" vertex="1">
          <mxGeometry x="1100" y="680" width="140" height="60" as="geometry" />
        </mxCell>
        <mxCell id="g9feEOPvG_fvenJrY9SU-202" style="edgeStyle=orthogonalEdgeStyle;rounded=0;orthogonalLoop=1;jettySize=auto;html=1;exitX=0.25;exitY=1;exitDx=0;exitDy=0;entryX=0;entryY=0.5;entryDx=0;entryDy=0;" parent="1" source="g9feEOPvG_fvenJrY9SU-86" target="g9feEOPvG_fvenJrY9SU-124" edge="1">
          <mxGeometry relative="1" as="geometry" />
        </mxCell>
        <mxCell id="g9feEOPvG_fvenJrY9SU-203" style="edgeStyle=orthogonalEdgeStyle;rounded=0;orthogonalLoop=1;jettySize=auto;html=1;exitX=0.25;exitY=1;exitDx=0;exitDy=0;entryX=0;entryY=0.5;entryDx=0;entryDy=0;" parent="1" source="g9feEOPvG_fvenJrY9SU-86" target="g9feEOPvG_fvenJrY9SU-125" edge="1">
          <mxGeometry relative="1" as="geometry" />
        </mxCell>
        <mxCell id="g9feEOPvG_fvenJrY9SU-204" style="edgeStyle=orthogonalEdgeStyle;rounded=0;orthogonalLoop=1;jettySize=auto;html=1;exitX=0.25;exitY=1;exitDx=0;exitDy=0;entryX=0;entryY=0.5;entryDx=0;entryDy=0;" parent="1" source="g9feEOPvG_fvenJrY9SU-86" target="g9feEOPvG_fvenJrY9SU-126" edge="1">
          <mxGeometry relative="1" as="geometry" />
        </mxCell>
        <mxCell id="g9feEOPvG_fvenJrY9SU-86" value="1.3.3 Documentation Updates" style="whiteSpace=wrap;rounded=1;fillColor=#12AAB5;strokeColor=none;shadow=1;fontColor=light-dark(#000000,#000000);" parent="1" vertex="1">
          <mxGeometry x="1260" y="810.0000000000005" width="120" height="60" as="geometry" />
        </mxCell>
        <mxCell id="g9feEOPvG_fvenJrY9SU-197" style="edgeStyle=orthogonalEdgeStyle;rounded=0;orthogonalLoop=1;jettySize=auto;html=1;exitX=0.25;exitY=1;exitDx=0;exitDy=0;entryX=0;entryY=0.5;entryDx=0;entryDy=0;" parent="1" source="g9feEOPvG_fvenJrY9SU-87" target="g9feEOPvG_fvenJrY9SU-121" edge="1">
          <mxGeometry relative="1" as="geometry" />
        </mxCell>
        <mxCell id="g9feEOPvG_fvenJrY9SU-198" style="edgeStyle=orthogonalEdgeStyle;rounded=0;orthogonalLoop=1;jettySize=auto;html=1;exitX=0.25;exitY=1;exitDx=0;exitDy=0;entryX=0;entryY=0.5;entryDx=0;entryDy=0;" parent="1" source="g9feEOPvG_fvenJrY9SU-87" target="g9feEOPvG_fvenJrY9SU-122" edge="1">
          <mxGeometry relative="1" as="geometry" />
        </mxCell>
        <mxCell id="g9feEOPvG_fvenJrY9SU-87" value="1.3.2 Security Testing" style="whiteSpace=wrap;rounded=1;fillColor=#12AAB5;strokeColor=none;shadow=1;fontColor=light-dark(#000000,#000000);" parent="1" vertex="1">
          <mxGeometry x="1110" y="810.0000000000002" width="120" height="60" as="geometry" />
        </mxCell>
        <mxCell id="g9feEOPvG_fvenJrY9SU-196" style="edgeStyle=orthogonalEdgeStyle;rounded=0;orthogonalLoop=1;jettySize=auto;html=1;exitX=0.25;exitY=1;exitDx=0;exitDy=0;entryX=0;entryY=0.5;entryDx=0;entryDy=0;" parent="1" source="g9feEOPvG_fvenJrY9SU-88" target="g9feEOPvG_fvenJrY9SU-118" edge="1">
          <mxGeometry relative="1" as="geometry" />
        </mxCell>
        <mxCell id="g9feEOPvG_fvenJrY9SU-211" style="edgeStyle=orthogonalEdgeStyle;rounded=0;orthogonalLoop=1;jettySize=auto;html=1;exitX=0.25;exitY=1;exitDx=0;exitDy=0;entryX=0;entryY=0.5;entryDx=0;entryDy=0;" parent="1" source="g9feEOPvG_fvenJrY9SU-88" target="g9feEOPvG_fvenJrY9SU-111" edge="1">
          <mxGeometry relative="1" as="geometry" />
        </mxCell>
        <mxCell id="g9feEOPvG_fvenJrY9SU-88" value="1.3.1 Performance Testing" style="whiteSpace=wrap;rounded=1;fillColor=#12AAB5;strokeColor=light-dark(transparent,#000000);shadow=1;fontColor=light-dark(#000000,#000000);" parent="1" vertex="1">
          <mxGeometry x="960" y="810.0000000000002" width="120" height="60" as="geometry" />
        </mxCell>
        <mxCell id="g9feEOPvG_fvenJrY9SU-89" value="" style="edgeStyle=elbowEdgeStyle;elbow=vertical;rounded=0;fontColor=#000000;endArrow=none;endFill=0;strokeWidth=8;strokeColor=#23445D;entryX=0.5;entryY=0;entryDx=0;entryDy=0;exitX=0.5;exitY=1;exitDx=0;exitDy=0;" parent="1" source="g9feEOPvG_fvenJrY9SU-85" target="g9feEOPvG_fvenJrY9SU-88" edge="1">
          <mxGeometry width="100" height="100" relative="1" as="geometry">
            <mxPoint x="1170" y="750" as="sourcePoint" />
            <mxPoint x="1020" y="810.0000000000002" as="targetPoint" />
            <Array as="points" />
          </mxGeometry>
        </mxCell>
        <mxCell id="g9feEOPvG_fvenJrY9SU-90" value="" style="edgeStyle=elbowEdgeStyle;elbow=vertical;rounded=0;fontColor=#000000;endArrow=none;endFill=0;strokeWidth=8;strokeColor=#23445D;entryX=0.5;entryY=0;entryDx=0;entryDy=0;" parent="1" target="g9feEOPvG_fvenJrY9SU-87" edge="1">
          <mxGeometry width="100" height="100" relative="1" as="geometry">
            <mxPoint x="1170" y="760" as="sourcePoint" />
            <mxPoint x="1169.29" y="821.0000000000002" as="targetPoint" />
          </mxGeometry>
        </mxCell>
        <mxCell id="g9feEOPvG_fvenJrY9SU-91" value="" style="edgeStyle=elbowEdgeStyle;elbow=vertical;rounded=0;fontColor=#000000;endArrow=none;endFill=0;strokeWidth=8;strokeColor=#23445D;entryX=0.5;entryY=0;entryDx=0;entryDy=0;exitX=0.5;exitY=1;exitDx=0;exitDy=0;" parent="1" source="g9feEOPvG_fvenJrY9SU-85" target="g9feEOPvG_fvenJrY9SU-86" edge="1">
          <mxGeometry width="100" height="100" relative="1" as="geometry">
            <mxPoint x="1180" y="760.0000000000002" as="sourcePoint" />
            <mxPoint x="1230" y="840.0000000000002" as="targetPoint" />
            <Array as="points" />
          </mxGeometry>
        </mxCell>
        <mxCell id="g9feEOPvG_fvenJrY9SU-92" value="1.4 Deployment" style="whiteSpace=wrap;rounded=1;fillColor=#F2931E;strokeColor=none;shadow=1;fontColor=#FFFFFF;fontStyle=1;fontSize=14" parent="1" vertex="1">
          <mxGeometry x="1550" y="680" width="140" height="60" as="geometry" />
        </mxCell>
        <mxCell id="g9feEOPvG_fvenJrY9SU-208" style="edgeStyle=orthogonalEdgeStyle;rounded=0;orthogonalLoop=1;jettySize=auto;html=1;exitX=0.25;exitY=1;exitDx=0;exitDy=0;entryX=0;entryY=0.5;entryDx=0;entryDy=0;" parent="1" source="g9feEOPvG_fvenJrY9SU-94" target="g9feEOPvG_fvenJrY9SU-130" edge="1">
          <mxGeometry relative="1" as="geometry" />
        </mxCell>
        <mxCell id="g9feEOPvG_fvenJrY9SU-209" style="edgeStyle=orthogonalEdgeStyle;rounded=0;orthogonalLoop=1;jettySize=auto;html=1;exitX=0.25;exitY=1;exitDx=0;exitDy=0;entryX=0;entryY=0.5;entryDx=0;entryDy=0;" parent="1" source="g9feEOPvG_fvenJrY9SU-94" target="g9feEOPvG_fvenJrY9SU-131" edge="1">
          <mxGeometry relative="1" as="geometry" />
        </mxCell>
        <mxCell id="g9feEOPvG_fvenJrY9SU-210" style="edgeStyle=orthogonalEdgeStyle;rounded=0;orthogonalLoop=1;jettySize=auto;html=1;exitX=0.25;exitY=1;exitDx=0;exitDy=0;entryX=0;entryY=0.5;entryDx=0;entryDy=0;" parent="1" source="g9feEOPvG_fvenJrY9SU-94" target="g9feEOPvG_fvenJrY9SU-132" edge="1">
          <mxGeometry relative="1" as="geometry" />
        </mxCell>
        <mxCell id="g9feEOPvG_fvenJrY9SU-94" value="1.4.2 Closure &amp; Acceptance" style="whiteSpace=wrap;rounded=1;fillColor=#12AAB5;strokeColor=none;shadow=1;fontColor=light-dark(#000000,#000000);" parent="1" vertex="1">
          <mxGeometry x="1610" y="810.0000000000002" width="120" height="60" as="geometry" />
        </mxCell>
        <mxCell id="g9feEOPvG_fvenJrY9SU-205" style="edgeStyle=orthogonalEdgeStyle;rounded=0;orthogonalLoop=1;jettySize=auto;html=1;exitX=0.25;exitY=1;exitDx=0;exitDy=0;entryX=0;entryY=0.5;entryDx=0;entryDy=0;" parent="1" source="g9feEOPvG_fvenJrY9SU-95" target="g9feEOPvG_fvenJrY9SU-127" edge="1">
          <mxGeometry relative="1" as="geometry" />
        </mxCell>
        <mxCell id="g9feEOPvG_fvenJrY9SU-206" style="edgeStyle=orthogonalEdgeStyle;rounded=0;orthogonalLoop=1;jettySize=auto;html=1;exitX=0.25;exitY=1;exitDx=0;exitDy=0;entryX=0;entryY=0.5;entryDx=0;entryDy=0;" parent="1" source="g9feEOPvG_fvenJrY9SU-95" target="g9feEOPvG_fvenJrY9SU-128" edge="1">
          <mxGeometry relative="1" as="geometry" />
        </mxCell>
        <mxCell id="g9feEOPvG_fvenJrY9SU-207" style="edgeStyle=orthogonalEdgeStyle;rounded=0;orthogonalLoop=1;jettySize=auto;html=1;exitX=0.25;exitY=1;exitDx=0;exitDy=0;entryX=0;entryY=0.5;entryDx=0;entryDy=0;" parent="1" source="g9feEOPvG_fvenJrY9SU-95" target="g9feEOPvG_fvenJrY9SU-129" edge="1">
          <mxGeometry relative="1" as="geometry" />
        </mxCell>
        <mxCell id="g9feEOPvG_fvenJrY9SU-95" value="1.4.1 Final Report Submission" style="whiteSpace=wrap;rounded=1;fillColor=#12AAB5;strokeColor=light-dark(transparent,#000000);shadow=1;fontColor=light-dark(#000000,#000000);" parent="1" vertex="1">
          <mxGeometry x="1460" y="810.0000000000002" width="120" height="60" as="geometry" />
        </mxCell>
        <mxCell id="g9feEOPvG_fvenJrY9SU-96" value="" style="edgeStyle=elbowEdgeStyle;elbow=vertical;rounded=0;fontColor=#000000;endArrow=none;endFill=0;strokeWidth=8;strokeColor=#23445D;entryX=0.5;entryY=0;entryDx=0;entryDy=0;exitX=0.5;exitY=1;exitDx=0;exitDy=0;" parent="1" source="g9feEOPvG_fvenJrY9SU-92" target="g9feEOPvG_fvenJrY9SU-95" edge="1">
          <mxGeometry width="100" height="100" relative="1" as="geometry">
            <mxPoint x="1620" y="750" as="sourcePoint" />
            <mxPoint x="1470" y="810.0000000000002" as="targetPoint" />
            <Array as="points">
              <mxPoint x="1570" y="775" />
            </Array>
          </mxGeometry>
        </mxCell>
        <mxCell id="g9feEOPvG_fvenJrY9SU-97" value="" style="edgeStyle=elbowEdgeStyle;elbow=vertical;rounded=0;fontColor=#000000;endArrow=none;endFill=0;strokeWidth=8;strokeColor=#23445D;entryX=0.5;entryY=0;entryDx=0;entryDy=0;" parent="1" target="g9feEOPvG_fvenJrY9SU-94" edge="1">
          <mxGeometry width="100" height="100" relative="1" as="geometry">
            <mxPoint x="1620" y="740" as="sourcePoint" />
            <mxPoint x="1619.29" y="821.0000000000002" as="targetPoint" />
            <Array as="points" />
          </mxGeometry>
        </mxCell>
        <mxCell id="g9feEOPvG_fvenJrY9SU-100" value="1.1.1.1 Functional" style="whiteSpace=wrap;rounded=1;shadow=1;fillColor=#1ba1e2;strokeColor=#006EAF;fontColor=#ffffff;" parent="1" vertex="1">
          <mxGeometry x="100" y="890" width="120" height="60" as="geometry" />
        </mxCell>
        <mxCell id="g9feEOPvG_fvenJrY9SU-101" value="1.1.1.2 Non-Functional" style="whiteSpace=wrap;rounded=1;fillColor=#1ba1e2;strokeColor=#006EAF;shadow=1;fontColor=#ffffff;" parent="1" vertex="1">
          <mxGeometry x="100" y="970" width="120" height="60" as="geometry" />
        </mxCell>
        <mxCell id="g9feEOPvG_fvenJrY9SU-102" value="1.1.1.3 Project Management" style="whiteSpace=wrap;rounded=1;fillColor=#1ba1e2;strokeColor=#006EAF;shadow=1;fontColor=#ffffff;" parent="1" vertex="1">
          <mxGeometry x="100" y="1050" width="120" height="60" as="geometry" />
        </mxCell>
        <mxCell id="g9feEOPvG_fvenJrY9SU-103" value="1.1.2.1 Vulnerable Code Samples" style="whiteSpace=wrap;rounded=1;shadow=1;fillColor=#1ba1e2;strokeColor=#006EAF;fontColor=#ffffff;" parent="1" vertex="1">
          <mxGeometry x="250" y="890" width="120" height="60" as="geometry" />
        </mxCell>
        <mxCell id="g9feEOPvG_fvenJrY9SU-104" value="1.1.2.2 Non-Vulnerable Code Samples" style="whiteSpace=wrap;rounded=1;fillColor=#1ba1e2;strokeColor=#006EAF;shadow=1;fontColor=#ffffff;" parent="1" vertex="1">
          <mxGeometry x="250" y="970" width="120" height="60" as="geometry" />
        </mxCell>
        <mxCell id="g9feEOPvG_fvenJrY9SU-105" value="1.1.2.3 Data Cleaning &amp; Preprocessing" style="whiteSpace=wrap;rounded=1;fillColor=#1ba1e2;strokeColor=#006EAF;shadow=1;fontColor=#ffffff;" parent="1" vertex="1">
          <mxGeometry x="250" y="1050" width="120" height="60" as="geometry" />
        </mxCell>
        <mxCell id="g9feEOPvG_fvenJrY9SU-106" value="1.1.3.1 ML Model Design" style="whiteSpace=wrap;rounded=1;shadow=1;fillColor=#1ba1e2;strokeColor=#006EAF;fontColor=#ffffff;" parent="1" vertex="1">
          <mxGeometry x="400" y="890" width="120" height="60" as="geometry" />
        </mxCell>
        <mxCell id="g9feEOPvG_fvenJrY9SU-107" value="1.1.3.2 Web Application Design" style="whiteSpace=wrap;rounded=1;fillColor=#1ba1e2;strokeColor=#006EAF;shadow=1;fontColor=#ffffff;" parent="1" vertex="1">
          <mxGeometry x="400" y="970" width="120" height="60" as="geometry" />
        </mxCell>
        <mxCell id="g9feEOPvG_fvenJrY9SU-108" value="1.1.3.3 UI Design" style="whiteSpace=wrap;rounded=1;fillColor=#1ba1e2;strokeColor=#006EAF;shadow=1;fontColor=#ffffff;" parent="1" vertex="1">
          <mxGeometry x="400" y="1050" width="120" height="60" as="geometry" />
        </mxCell>
        <mxCell id="g9feEOPvG_fvenJrY9SU-109" value="1.2.1.1 Model Training" style="whiteSpace=wrap;rounded=1;shadow=1;fillColor=#1ba1e2;strokeColor=#006EAF;fontColor=#ffffff;" parent="1" vertex="1">
          <mxGeometry x="550" y="890" width="120" height="60" as="geometry" />
        </mxCell>
        <mxCell id="g9feEOPvG_fvenJrY9SU-110" value="1.2.1.2 Model Validation" style="whiteSpace=wrap;rounded=1;fillColor=#1ba1e2;strokeColor=#006EAF;shadow=1;fontColor=#ffffff;" parent="1" vertex="1">
          <mxGeometry x="550" y="970" width="120" height="60" as="geometry" />
        </mxCell>
        <mxCell id="g9feEOPvG_fvenJrY9SU-111" value="1.2.1.3 Accuracy Testing" style="whiteSpace=wrap;rounded=1;fillColor=#1ba1e2;strokeColor=#006EAF;shadow=1;fontColor=#ffffff;" parent="1" vertex="1">
          <mxGeometry x="1010" y="970" width="120" height="60" as="geometry" />
        </mxCell>
        <mxCell id="g9feEOPvG_fvenJrY9SU-112" value="1.2.2.1 Backend Development" style="whiteSpace=wrap;rounded=1;shadow=1;fillColor=#1ba1e2;strokeColor=#006EAF;fontColor=#ffffff;" parent="1" vertex="1">
          <mxGeometry x="700" y="890" width="120" height="60" as="geometry" />
        </mxCell>
        <mxCell id="g9feEOPvG_fvenJrY9SU-113" value="1.2.2.2 Frontend Development" style="whiteSpace=wrap;rounded=1;fillColor=#1ba1e2;strokeColor=#006EAF;shadow=1;fontColor=#ffffff;" parent="1" vertex="1">
          <mxGeometry x="700" y="970" width="120" height="60" as="geometry" />
        </mxCell>
        <mxCell id="g9feEOPvG_fvenJrY9SU-114" value="1.2.2.3 Integration with ML" style="whiteSpace=wrap;rounded=1;fillColor=#1ba1e2;strokeColor=#006EAF;shadow=1;fontColor=#ffffff;" parent="1" vertex="1">
          <mxGeometry x="700" y="1050" width="120" height="60" as="geometry" />
        </mxCell>
        <mxCell id="g9feEOPvG_fvenJrY9SU-115" value="1.2.3.1 Design Charts/Tables" style="whiteSpace=wrap;rounded=1;shadow=1;fillColor=#1ba1e2;strokeColor=#006EAF;fontColor=#ffffff;" parent="1" vertex="1">
          <mxGeometry x="850" y="890" width="120" height="60" as="geometry" />
        </mxCell>
        <mxCell id="g9feEOPvG_fvenJrY9SU-116" value="1.2.3.2 Integrate Visualization with Web App" style="whiteSpace=wrap;rounded=1;fillColor=#1ba1e2;strokeColor=#006EAF;shadow=1;fontColor=#ffffff;" parent="1" vertex="1">
          <mxGeometry x="850" y="970" width="120" height="60" as="geometry" />
        </mxCell>
        <mxCell id="g9feEOPvG_fvenJrY9SU-117" value="1.2.3.3 Usability Testing" style="whiteSpace=wrap;rounded=1;fillColor=#1ba1e2;strokeColor=#006EAF;shadow=1;fontColor=#ffffff;" parent="1" vertex="1">
          <mxGeometry x="850" y="1050" width="120" height="60" as="geometry" />
        </mxCell>
        <mxCell id="g9feEOPvG_fvenJrY9SU-118" value="1.3.1.1 Response Time Test" style="whiteSpace=wrap;rounded=1;shadow=1;fillColor=#1ba1e2;strokeColor=#006EAF;fontColor=#ffffff;" parent="1" vertex="1">
          <mxGeometry x="1010" y="890" width="120" height="60" as="geometry" />
        </mxCell>
        <mxCell id="g9feEOPvG_fvenJrY9SU-121" value="1.3.2.1 Secure Code Upload &amp; Deletion Test" style="whiteSpace=wrap;rounded=1;shadow=1;fillColor=#1ba1e2;strokeColor=#006EAF;fontColor=#ffffff;" parent="1" vertex="1">
          <mxGeometry x="1160" y="890" width="120" height="60" as="geometry" />
        </mxCell>
        <mxCell id="g9feEOPvG_fvenJrY9SU-122" value="1.3.2.2 Data Privacy Compliance Check" style="whiteSpace=wrap;rounded=1;fillColor=#1ba1e2;strokeColor=#006EAF;shadow=1;fontColor=#ffffff;" parent="1" vertex="1">
          <mxGeometry x="1160" y="970" width="120" height="60" as="geometry" />
        </mxCell>
        <mxCell id="g9feEOPvG_fvenJrY9SU-124" value="1.3.3.1 Weekly Meeting Minutes" style="whiteSpace=wrap;rounded=1;shadow=1;fillColor=#1ba1e2;strokeColor=#006EAF;fontColor=#ffffff;" parent="1" vertex="1">
          <mxGeometry x="1310" y="890" width="120" height="60" as="geometry" />
        </mxCell>
        <mxCell id="g9feEOPvG_fvenJrY9SU-125" value="1.3.3.2 Update Requirements &amp; Scope Docs" style="whiteSpace=wrap;rounded=1;fillColor=#1ba1e2;strokeColor=#006EAF;shadow=1;fontColor=#ffffff;" parent="1" vertex="1">
          <mxGeometry x="1310" y="970" width="120" height="60" as="geometry" />
        </mxCell>
        <mxCell id="g9feEOPvG_fvenJrY9SU-126" value="1.3.3.3 Version Control Tracking" style="whiteSpace=wrap;rounded=1;fillColor=#1ba1e2;strokeColor=#006EAF;shadow=1;fontColor=#ffffff;" parent="1" vertex="1">
          <mxGeometry x="1310" y="1050" width="120" height="60" as="geometry" />
        </mxCell>
        <mxCell id="g9feEOPvG_fvenJrY9SU-127" value="1.4.1.1 Draft Report Writing" style="whiteSpace=wrap;rounded=1;shadow=1;fillColor=#1ba1e2;strokeColor=#006EAF;fontColor=#ffffff;" parent="1" vertex="1">
          <mxGeometry x="1510" y="890" width="120" height="60" as="geometry" />
        </mxCell>
        <mxCell id="g9feEOPvG_fvenJrY9SU-128" value="1.4.1.2 Internal Review &amp; Feedback" style="whiteSpace=wrap;rounded=1;fillColor=#1ba1e2;strokeColor=#006EAF;shadow=1;fontColor=#ffffff;" parent="1" vertex="1">
          <mxGeometry x="1510" y="970" width="120" height="60" as="geometry" />
        </mxCell>
        <mxCell id="g9feEOPvG_fvenJrY9SU-129" value="1.4.1.3 Final Submission" style="whiteSpace=wrap;rounded=1;fillColor=#1ba1e2;strokeColor=#006EAF;shadow=1;fontColor=#ffffff;" parent="1" vertex="1">
          <mxGeometry x="1510" y="1050" width="120" height="60" as="geometry" />
        </mxCell>
        <mxCell id="g9feEOPvG_fvenJrY9SU-130" value="1.4.2.1 Repository Finalization" style="whiteSpace=wrap;rounded=1;shadow=1;fillColor=#1ba1e2;strokeColor=#006EAF;fontColor=#ffffff;" parent="1" vertex="1">
          <mxGeometry x="1660" y="890" width="120" height="60" as="geometry" />
        </mxCell>
        <mxCell id="g9feEOPvG_fvenJrY9SU-131" value="1.4.2.2 Documentation Archive " style="whiteSpace=wrap;rounded=1;fillColor=#1ba1e2;strokeColor=#006EAF;shadow=1;fontColor=#ffffff;" parent="1" vertex="1">
          <mxGeometry x="1660" y="970" width="120" height="60" as="geometry" />
        </mxCell>
        <mxCell id="g9feEOPvG_fvenJrY9SU-132" value="1.4.2.3 Acceptance Review" style="whiteSpace=wrap;rounded=1;fillColor=#1ba1e2;strokeColor=#006EAF;shadow=1;fontColor=#ffffff;" parent="1" vertex="1">
          <mxGeometry x="1660" y="1050" width="120" height="60" as="geometry" />
        </mxCell>
      </root>
    </mxGraphModel>
  </diagram>
</mxfile>
